<svg width="364" height="113" viewBox="0 0 364 113" fill="none" xmlns="http://www.w3.org/2000/svg">
<path d="M21.98 41.72C34.22 41.72 43.34 33.2 43.34 21.02C43.34 8.84 34.22 0.319998 21.98 0.319998C9.74 0.319998 0.56 8.84 0.56 21.02C0.56 33.2 9.74 41.72 21.98 41.72ZM21.98 32.6C15.32 32.6 11.06 27.5 11.06 21.02C11.06 14.48 15.32 9.44 21.98 9.44C28.58 9.44 32.84 14.48 32.84 21.02C32.84 27.5 28.58 32.6 21.98 32.6ZM77.1575 41V20.48C77.1575 15.14 74.1575 11.3 67.5575 11.3C62.6975 11.3 59.2775 13.52 57.5375 15.56V12.02H48.2975V41H57.5375V22.28C58.6175 20.96 60.4175 19.46 63.1775 19.46C66.0575 19.46 67.9175 20.72 67.9175 24.26V41H77.1575ZM93.1039 41V0.979997H83.8639V41H93.1039ZM126.141 41V22.88C126.141 13.88 119.601 11.3 112.641 11.3C108.201 11.3 103.221 12.62 99.5014 15.8L102.801 21.62C105.141 19.64 108.141 18.56 111.021 18.56C114.741 18.56 116.901 20.24 116.901 22.76V26.24C115.161 24.08 111.741 22.88 107.901 22.88C103.461 22.88 97.9414 25.16 97.9414 32.18C97.9414 38.72 103.461 41.72 107.901 41.72C111.621 41.72 115.101 40.28 116.901 38.12V41H126.141ZM111.741 35.66C109.281 35.66 107.121 34.58 107.121 32.3C107.121 30.02 109.281 28.94 111.741 28.94C113.781 28.94 115.941 29.66 116.901 30.98V33.56C115.941 34.94 113.781 35.66 111.741 35.66ZM132.248 52.28C133.208 52.58 135.368 52.76 136.208 52.76C141.728 52.64 146.108 51.26 148.448 45.14L161.528 12.02H151.748L145.148 30.38L138.608 12.02H128.888L140.408 41.42L139.748 42.98C139.268 44.18 137.948 44.6 135.848 44.6C135.128 44.6 134.228 44.42 133.568 44.06L132.248 52.28ZM193.173 41V20.48C193.173 15.14 190.173 11.3 183.573 11.3C178.713 11.3 175.293 13.52 173.553 15.56V12.02H164.313V41H173.553V22.28C174.633 20.96 176.433 19.46 179.193 19.46C182.073 19.46 183.933 20.72 183.933 24.26V41H193.173ZM12.92 101V60.98H2.6V101H12.92ZM39.3795 101V69.98H50.5395V60.98H17.8395V69.98H29.0595V101H39.3795ZM64.4773 90.32V82.58H50.0773V90.32H64.4773ZM95.9656 101V82.88C95.9656 73.88 89.4256 71.3 82.4656 71.3C78.0256 71.3 73.0456 72.62 69.3256 75.8L72.6256 81.62C74.9656 79.64 77.9656 78.56 80.8456 78.56C84.5656 78.56 86.7256 80.24 86.7256 82.76V86.24C84.9856 84.08 81.5656 82.88 77.7256 82.88C73.2856 82.88 67.7656 85.16 67.7656 92.18C67.7656 98.72 73.2856 101.72 77.7256 101.72C81.4456 101.72 84.9256 100.28 86.7256 98.12V101H95.9656ZM81.5656 95.66C79.1056 95.66 76.9456 94.58 76.9456 92.3C76.9456 90.02 79.1056 88.94 81.5656 88.94C83.6056 88.94 85.7656 89.66 86.7256 90.98V93.56C85.7656 94.94 83.6056 95.66 81.5656 95.66ZM132.433 101L121.213 85.22L131.893 72.02H120.733L111.913 83.6V60.98H102.673V101H111.913V94.04L114.673 90.74L121.033 101H132.433ZM161.766 101V82.88C161.766 73.88 155.226 71.3 148.266 71.3C143.826 71.3 138.846 72.62 135.126 75.8L138.426 81.62C140.766 79.64 143.766 78.56 146.646 78.56C150.366 78.56 152.526 80.24 152.526 82.76V86.24C150.786 84.08 147.366 82.88 143.526 82.88C139.086 82.88 133.566 85.16 133.566 92.18C133.566 98.72 139.086 101.72 143.526 101.72C147.246 101.72 150.726 100.28 152.526 98.12V101H161.766ZM147.366 95.66C144.906 95.66 142.746 94.58 142.746 92.3C142.746 90.02 144.906 88.94 147.366 88.94C149.406 88.94 151.566 89.66 152.526 90.98V93.56C151.566 94.94 149.406 95.66 147.366 95.66ZM197.153 101V60.98H187.973V75.44C185.633 72.56 182.573 71.3 179.393 71.3C172.133 71.3 166.553 77 166.553 86.48C166.553 96.32 172.253 101.72 179.393 101.72C182.633 101.72 185.573 100.4 187.973 97.64V101H197.153ZM182.393 93.56C178.733 93.56 176.033 90.8 176.033 86.48C176.033 82.16 178.733 79.46 182.393 79.46C184.373 79.46 186.773 80.48 187.973 82.04V90.92C186.773 92.48 184.373 93.56 182.393 93.56ZM217.843 101.72C222.283 101.72 227.083 100.46 229.963 97.88L226.063 92.12C224.443 93.68 220.903 94.58 218.863 94.58C214.663 94.58 212.143 92.12 211.603 89.42H232.242V87.44C232.242 77.6 226.003 71.3 217.423 71.3C208.363 71.3 202.003 78.08 202.003 86.48C202.003 95.9 208.903 101.72 217.843 101.72ZM223.423 83.42H211.483C211.843 81.32 213.403 78.44 217.423 78.44C221.683 78.44 223.183 81.38 223.423 83.42ZM282.514 101V80C282.514 74.06 279.154 71.3 273.814 71.3C269.254 71.3 265.474 73.94 263.794 76.46C262.594 73.04 259.714 71.3 255.574 71.3C251.014 71.3 247.294 73.88 246.034 75.56V72.02H236.794V101H246.034V82.28C246.994 81.08 248.734 79.46 251.194 79.46C254.014 79.46 255.034 81.14 255.034 83.36V101H264.274V82.28C265.174 81.08 266.974 79.46 269.494 79.46C272.254 79.46 273.334 81.14 273.334 83.36V101H282.514ZM293.914 69.44C296.854 69.44 299.194 67.04 299.194 64.1C299.194 61.16 296.854 58.82 293.914 58.82C290.974 58.82 288.634 61.16 288.634 64.1C288.634 67.04 290.974 69.44 293.914 69.44ZM298.534 101V72.02H289.294V101H298.534ZM304.631 112.28C305.591 112.58 307.751 112.76 308.591 112.76C314.111 112.64 318.491 111.26 320.831 105.14L333.911 72.02H324.131L317.531 90.38L310.991 72.02H301.271L312.791 101.42L312.131 102.98C311.651 104.18 310.331 104.6 308.231 104.6C307.511 104.6 306.611 104.42 305.951 104.06L304.631 112.28ZM363.036 101V82.88C363.036 73.88 356.496 71.3 349.536 71.3C345.096 71.3 340.116 72.62 336.396 75.8L339.696 81.62C342.036 79.64 345.036 78.56 347.916 78.56C351.636 78.56 353.796 80.24 353.796 82.76V86.24C352.056 84.08 348.636 82.88 344.796 82.88C340.356 82.88 334.836 85.16 334.836 92.18C334.836 98.72 340.356 101.72 344.796 101.72C348.516 101.72 351.996 100.28 353.796 98.12V101H363.036ZM348.636 95.66C346.176 95.66 344.016 94.58 344.016 92.3C344.016 90.02 346.176 88.94 348.636 88.94C350.676 88.94 352.836 89.66 353.796 90.98V93.56C352.836 94.94 350.676 95.66 348.636 95.66Z" fill="white"/>
</svg>
